<svg width="57" height="56" viewBox="0 0 57 56" fill="none" xmlns="http://www.w3.org/2000/svg">
<path fill-rule="evenodd" clip-rule="evenodd" d="M7.25 7V39.6667H33.3682V37.3333H9.58333V9.33333H41.0833V11.8067H43.4167V7H7.25ZM43.4167 18.6667C43.4167 19.2855 43.1708 19.879 42.7332 20.3166C42.2957 20.7542 41.7022 21 41.0833 21C40.4645 21 39.871 20.7542 39.4334 20.3166C38.9958 19.879 38.75 19.2855 38.75 18.6667C38.75 18.0478 38.9958 17.4543 39.4334 17.0168C39.871 16.5792 40.4645 16.3333 41.0833 16.3333C41.7022 16.3333 42.2957 16.5792 42.7332 17.0168C43.1708 17.4543 43.4167 18.0478 43.4167 18.6667ZM45.75 18.6667C45.75 19.9043 45.2583 21.0913 44.3832 21.9665C43.508 22.8417 42.321 23.3333 41.0833 23.3333C39.8457 23.3333 38.6587 22.8417 37.7835 21.9665C36.9083 21.0913 36.4167 19.9043 36.4167 18.6667C36.4167 17.429 36.9083 16.242 37.7835 15.3668C38.6587 14.4917 39.8457 14 41.0833 14C42.321 14 43.508 14.4917 44.3832 15.3668C45.2583 16.242 45.75 17.429 45.75 18.6667Z" fill="#858585"/>
<path fill-rule="evenodd" clip-rule="evenodd" d="M35.3584 25.4683C36.0091 24.8472 36.8739 24.5004 37.7734 24.5H42.5358C44.2438 24.5 45.8339 25.081 47.0589 26.2383C48.2373 27.3513 48.8509 28.7782 49.1018 30.1303C49.4961 32.256 49.0878 34.5788 48.0833 36.638V46.0833C48.0833 46.8153 47.8081 47.5204 47.3124 48.0589C46.8167 48.5974 46.1366 48.9298 45.4072 48.9902C44.6777 49.0505 43.9523 48.8345 43.3748 48.3848C42.7973 47.9351 42.4099 47.2848 42.2896 46.5628L41.6666 42.8248L41.0436 46.5628C40.9233 47.2848 40.536 47.9351 39.9584 48.3848C39.3809 48.8345 38.6555 49.0505 37.926 48.9902C37.1966 48.9298 36.5165 48.5974 36.0208 48.0589C35.5251 47.5204 35.2499 46.8153 35.2499 46.0833V35.1085C34.7179 35.4157 34.1143 35.5775 33.4999 35.5775H27.5476C26.6193 35.5775 25.7291 35.2087 25.0727 34.5524C24.4164 33.896 24.0476 33.0058 24.0476 32.0775C24.0476 31.1492 24.4164 30.259 25.0727 29.6026C25.7291 28.9462 26.6193 28.5775 27.5476 28.5775H32.0976L35.3584 25.4683ZM37.5833 39.0542V46.0833C37.5837 46.2295 37.6389 46.3701 37.738 46.4775C37.8372 46.5848 37.973 46.6511 38.1186 46.6631C38.2642 46.6751 38.4091 46.6321 38.5245 46.5424C38.6399 46.4528 38.7174 46.3231 38.7418 46.179L39.9586 38.8803C40.0039 38.6079 40.1444 38.3604 40.355 38.1818C40.5656 38.0032 40.8328 37.9051 41.1089 37.905H42.2243C42.5004 37.9051 42.7676 38.0032 42.9782 38.1818C43.1889 38.3604 43.3293 38.6079 43.3746 38.8803L44.5914 46.179C44.6158 46.3231 44.6934 46.4528 44.8088 46.5424C44.9241 46.6321 45.069 46.6751 45.2146 46.6631C45.3602 46.6511 45.4961 46.5848 45.5952 46.4775C45.6943 46.3701 45.7495 46.2295 45.7499 46.0833V36.3615C45.7499 36.1747 45.7947 35.9907 45.8806 35.8248C46.7813 34.0853 47.1091 32.1802 46.8081 30.5562C46.6249 29.5692 46.1968 28.6335 45.4571 27.9347C44.7023 27.2218 43.7013 26.8333 42.5358 26.8333H37.7746C37.4748 26.8333 37.1854 26.9488 36.9684 27.1553L33.3704 30.5877C33.1536 30.7948 32.8653 30.9106 32.5654 30.9108H27.5476C27.2382 30.9108 26.9414 31.0337 26.7226 31.2525C26.5039 31.4713 26.3809 31.7681 26.3809 32.0775C26.3809 32.3869 26.5039 32.6837 26.7226 32.9025C26.9414 33.1213 27.2382 33.2442 27.5476 33.2442H33.4999C33.7998 33.2439 34.0881 33.1282 34.3049 32.921L35.6116 31.675C35.7769 31.5174 35.9848 31.4118 36.2096 31.3713C36.4344 31.3308 36.6661 31.3571 36.876 31.447C37.086 31.537 37.2649 31.6866 37.3906 31.8772C37.5163 32.0679 37.5833 32.2913 37.5833 32.5197V39.0542Z" fill="#858585"/>
</svg>
